<svg xmlns="http://www.w3.org/2000/svg" viewBox="0 0 400 400">
  <defs>
    <linearGradient id="bg4" x1="0" y1="0" x2="1" y2="1">
      <stop offset="0%" stop-color="#0f0f23"/>
      <stop offset="100%" stop-color="#1a0a2e"/>
    </linearGradient>
    <linearGradient id="fire" x1="0" y1="1" x2="0" y2="0">
      <stop offset="0%" stop-color="#ef4444"/>
      <stop offset="50%" stop-color="#f97316"/>
      <stop offset="100%" stop-color="#fbbf24"/>
    </linearGradient>
  </defs>
  <rect width="400" height="400" fill="url(#bg4)"/>
  <!-- Flame shape -->
  <path d="M200,100 Q230,150 220,180 Q250,160 240,220 Q260,200 250,260 Q240,300 200,320 Q160,300 150,260 Q140,200 160,220 Q150,160 180,180 Q170,150 200,100Z" fill="url(#fire)" opacity="0.9"/>
  <path d="M200,140 Q215,170 210,190 Q225,175 220,210 Q230,200 225,240 Q220,270 200,280 Q180,270 175,240 Q170,200 180,210 Q175,175 190,190 Q185,170 200,140Z" fill="white" opacity="0.3"/>
  <!-- Text -->
  <text x="200" y="355" text-anchor="middle" font-size="26" font-weight="900" font-family="'Space Grotesk',sans-serif" fill="#f97316">ZAVE</text>
  <text x="200" y="378" text-anchor="middle" font-size="13" font-weight="400" font-family="'Inter',sans-serif" fill="#fbbf24" letter-spacing="4">DIGITAL</text>
</svg>
